<svg xmlns="http://www.w3.org/2000/svg" xmlns:xlink="http://www.w3.org/1999/xlink" version="1.1" width="96" height="48" enable-background="new 0 0 96 48" xml:space="preserve"><rect id="backgroundrect" width="100%" height="100%" x="0" y="0" fill="none" stroke="none"/>


<g class="currentLayer"><title>Layer 1</title><g id="svg_1" class="">
	<g id="svg_2">
		<path fill="#FFFFFF" d="M13,47 c-0.30000000000000004,0 -0.5,-0.1 -0.7000000000000001,-0.30000000000000004 c-0.4,-0.4 -0.4,-1 0,-1.4 l21.3,-21.3 L12.3,2.7 c-0.4,-0.4 -0.4,-1 0,-1.4 s1,-0.4 1.4,0 l22,22 c0.4,0.4 0.4,1 0,1.4 l-22,22 C13.5,46.9 13.3,47 13,47 z" id="svg_3"/>
	</g>
</g><g class="" id="svg_7" fill="#000000" fill-opacity="1">
	<g id="svg_9" fill="#000000" fill-opacity="1">
		<path fill="#000000" d="M13,47 c-0.30000000000000004,0 -0.5,-0.1 -0.7000000000000001,-0.30000000000000004 c-0.4,-0.4 -0.4,-1 0,-1.4 l21.3,-21.3 L12.3,2.7 c-0.4,-0.4 -0.4,-1 0,-1.4 s1,-0.4 1.4,0 l22,22 c0.4,0.4 0.4,1 0,1.4 l-22,22 C13.5,46.9 13.3,47 13,47 z" id="svg_3" fill-opacity="1"/>
	</g>
</g><g id="svg_4" class="">
	<g id="svg_5">
		<path fill="#FFFFFF" d="M83,47 c-0.30000000000000004,0 -0.5,-0.1 -0.7000000000000001,-0.30000000000000004 l-22,-22 c-0.4,-0.4 -0.4,-1 0,-1.4 l22,-22 c0.4,-0.4 1,-0.4 1.4,0 s0.4,1 0,1.4 L62.4,24 l21.3,21.3 c0.4,0.4 0.4,1 0,1.4 C83.5,46.9 83.3,47 83,47 z" id="svg_6"/>
	</g>
</g><g class="" id="svg_11" fill="#000000" fill-opacity="1">
	<g id="svg_13" fill="#000000" fill-opacity="1">
		<path fill="#000000" d="M83,47 c-0.30000000000000004,0 -0.5,-0.1 -0.7000000000000001,-0.30000000000000004 l-22,-22 c-0.4,-0.4 -0.4,-1 0,-1.4 l22,-22 c0.4,-0.4 1,-0.4 1.4,0 s0.4,1 0,1.4 L62.4,24 l21.3,21.3 c0.4,0.4 0.4,1 0,1.4 C83.5,46.9 83.3,47 83,47 z" id="svg_6" fill-opacity="1"/>
	</g>
</g></g></svg>